<?xml version="1.0" encoding="UTF-8" standalone="no"?>
<!DOCTYPE svg PUBLIC "-//W3C//DTD SVG 1.1//EN" "http://www.w3.org/Graphics/SVG/1.1/DTD/svg11.dtd">
<svg width="100%" height="100%" viewBox="0 0 2953 2953" version="1.1" xmlns="http://www.w3.org/2000/svg" xmlns:xlink="http://www.w3.org/1999/xlink" xml:space="preserve" xmlns:serif="http://www.serif.com/" style="fill-rule:evenodd;clip-rule:evenodd;stroke-linecap:round;stroke-linejoin:round;stroke-miterlimit:1.5;">
    <g id="slots">
        <g transform="matrix(1,0,0,1,-313.816,-816.419)">
            <path d="M2866.13,1410.69L2866.13,953.601L2732.67,953.601L2732.67,1410.69L2703.14,1410.69L2703.14,1469.74L2895.66,1469.74L2895.66,1410.69L2866.13,1410.69Z" style="fill:none;stroke:black;stroke-width:4.17px;"/>
        </g>
        <g transform="matrix(0.186003,0,0,3.0822,2428.03,-863.748)">
            <rect x="1001.77" y="578.35" width="190.497" height="631.515" style="fill:none;stroke:black;stroke-width:1.91px;"/>
        </g>
        <g transform="matrix(0.186003,0,0,3.0822,2088.46,-863.748)">
            <rect x="1001.77" y="578.35" width="190.497" height="631.515" style="fill:none;stroke:black;stroke-width:1.91px;"/>
        </g>
        <g transform="matrix(0.186003,0,0,3.0822,1747.71,-863.748)">
            <rect x="1001.77" y="578.35" width="190.497" height="631.515" style="fill:none;stroke:black;stroke-width:1.91px;"/>
        </g>
        <g transform="matrix(0.186003,0,0,3.0822,1406.97,-863.748)">
            <rect x="1001.77" y="578.35" width="190.497" height="631.515" style="fill:none;stroke:black;stroke-width:1.91px;"/>
        </g>
        <g transform="matrix(0.186003,0,0,3.0822,1066.22,-863.748)">
            <rect x="1001.77" y="578.35" width="190.497" height="631.515" style="fill:none;stroke:black;stroke-width:1.91px;"/>
        </g>
        <g transform="matrix(0.186003,0,0,3.0822,725.47,-863.748)">
            <rect x="1001.77" y="578.35" width="190.497" height="631.515" style="fill:none;stroke:black;stroke-width:1.91px;"/>
        </g>
        <g transform="matrix(0.186003,0,0,3.0822,384.131,-863.748)">
            <rect x="1001.77" y="578.35" width="190.497" height="631.515" style="fill:none;stroke:black;stroke-width:1.91px;"/>
        </g>
        <g transform="matrix(0.186003,0,0,3.0822,42.7926,-863.748)">
            <rect x="1001.77" y="578.35" width="190.497" height="631.515" style="fill:none;stroke:black;stroke-width:1.91px;"/>
        </g>
        <g transform="matrix(1.13894e-17,0.186003,-3.91821,2.39921e-16,4944.24,2615.78)">
            <rect x="1001.77" y="578.35" width="190.497" height="631.515" style="fill:none;stroke:black;stroke-width:1.5px;"/>
        </g>
    </g>
</svg>
