<?xml version="1.0" encoding="UTF-8" standalone="no"?>
<!DOCTYPE svg PUBLIC "-//W3C//DTD SVG 1.1//EN" "http://www.w3.org/Graphics/SVG/1.1/DTD/svg11.dtd">
<svg width="100%" height="100%" viewBox="0 0 2953 2953" version="1.1" xmlns="http://www.w3.org/2000/svg" xmlns:xlink="http://www.w3.org/1999/xlink" xml:space="preserve" xmlns:serif="http://www.serif.com/" style="fill-rule:evenodd;clip-rule:evenodd;stroke-linecap:round;stroke-linejoin:round;stroke-miterlimit:1.5;">
    <g id="Holes">
        <g transform="matrix(0.75,0,0,0.75,-277.844,460.272)">
            <circle cx="926.354" cy="894.107" r="153.543" style="fill:none;stroke:black;stroke-width:5.56px;"/>
        </g>
        <g transform="matrix(0.75,0,0,0.75,63.4943,460.272)">
            <circle cx="926.354" cy="894.107" r="153.543" style="fill:none;stroke:black;stroke-width:5.56px;"/>
        </g>
        <g transform="matrix(0.75,0,0,0.75,404.242,460.272)">
            <circle cx="926.354" cy="894.107" r="153.543" style="fill:none;stroke:black;stroke-width:5.56px;"/>
        </g>
        <g transform="matrix(0.75,0,0,0.75,744.99,460.272)">
            <circle cx="926.354" cy="894.107" r="153.543" style="fill:none;stroke:black;stroke-width:5.56px;"/>
        </g>
        <g transform="matrix(0.75,0,0,0.75,1085.74,460.272)">
            <circle cx="926.354" cy="894.107" r="153.543" style="fill:none;stroke:black;stroke-width:5.56px;"/>
        </g>
        <g transform="matrix(0.75,0,0,0.75,1426.49,460.272)">
            <circle cx="926.354" cy="894.107" r="153.543" style="fill:none;stroke:black;stroke-width:5.56px;"/>
        </g>
        <g transform="matrix(0.75,0,0,0.75,1767.23,460.272)">
            <circle cx="926.354" cy="894.107" r="153.543" style="fill:none;stroke:black;stroke-width:5.56px;"/>
        </g>
        <g transform="matrix(0.75,0,0,0.75,1767.23,764.406)">
            <circle cx="926.354" cy="894.107" r="153.543" style="fill:none;stroke:black;stroke-width:5.56px;"/>
        </g>
        <g transform="matrix(0.75,0,0,0.75,1426.49,764.406)">
            <circle cx="926.354" cy="894.107" r="153.543" style="fill:none;stroke:black;stroke-width:5.56px;"/>
        </g>
        <g transform="matrix(0.75,0,0,0.75,1085.74,764.406)">
            <circle cx="926.354" cy="894.107" r="153.543" style="fill:none;stroke:black;stroke-width:5.56px;"/>
        </g>
        <g transform="matrix(0.75,0,0,0.75,744.99,764.406)">
            <circle cx="926.354" cy="894.107" r="153.543" style="fill:none;stroke:black;stroke-width:5.56px;"/>
        </g>
        <g transform="matrix(0.75,0,0,0.75,404.242,764.406)">
            <circle cx="926.354" cy="894.107" r="153.543" style="fill:none;stroke:black;stroke-width:5.56px;"/>
        </g>
        <g transform="matrix(0.75,0,0,0.75,63.4943,764.406)">
            <circle cx="926.354" cy="894.107" r="153.543" style="fill:none;stroke:black;stroke-width:5.56px;"/>
        </g>
        <g transform="matrix(0.75,0,0,0.75,-277.844,764.406)">
            <circle cx="926.354" cy="894.107" r="153.543" style="fill:none;stroke:black;stroke-width:5.56px;"/>
        </g>
        <g transform="matrix(0.75,0,0,0.75,-277.844,1068.54)">
            <circle cx="926.354" cy="894.107" r="153.543" style="fill:none;stroke:black;stroke-width:5.56px;"/>
        </g>
        <g transform="matrix(0.75,0,0,0.75,63.4943,1068.54)">
            <circle cx="926.354" cy="894.107" r="153.543" style="fill:none;stroke:black;stroke-width:5.56px;"/>
        </g>
        <g transform="matrix(0.75,0,0,0.75,404.242,1068.54)">
            <circle cx="926.354" cy="894.107" r="153.543" style="fill:none;stroke:black;stroke-width:5.56px;"/>
        </g>
        <g transform="matrix(0.75,0,0,0.75,744.99,1068.54)">
            <circle cx="926.354" cy="894.107" r="153.543" style="fill:none;stroke:black;stroke-width:5.56px;"/>
        </g>
        <g transform="matrix(0.75,0,0,0.75,1085.74,1068.54)">
            <circle cx="926.354" cy="894.107" r="153.543" style="fill:none;stroke:black;stroke-width:5.56px;"/>
        </g>
        <g transform="matrix(0.75,0,0,0.75,1426.49,1068.54)">
            <circle cx="926.354" cy="894.107" r="153.543" style="fill:none;stroke:black;stroke-width:5.56px;"/>
        </g>
        <g transform="matrix(0.75,0,0,0.75,1767.23,1068.54)">
            <circle cx="926.354" cy="894.107" r="153.543" style="fill:none;stroke:black;stroke-width:5.56px;"/>
        </g>
        <g transform="matrix(0.75,0,0,0.75,1767.23,1372.67)">
            <circle cx="926.354" cy="894.107" r="153.543" style="fill:none;stroke:black;stroke-width:5.56px;"/>
        </g>
        <g transform="matrix(0.75,0,0,0.75,1426.49,1372.67)">
            <circle cx="926.354" cy="894.107" r="153.543" style="fill:none;stroke:black;stroke-width:5.56px;"/>
        </g>
        <g transform="matrix(0.75,0,0,0.75,1085.74,1372.67)">
            <circle cx="926.354" cy="894.107" r="153.543" style="fill:none;stroke:black;stroke-width:5.56px;"/>
        </g>
        <g transform="matrix(0.75,0,0,0.75,744.99,1372.67)">
            <circle cx="926.354" cy="894.107" r="153.543" style="fill:none;stroke:black;stroke-width:5.56px;"/>
        </g>
        <g transform="matrix(0.75,0,0,0.75,404.242,1372.67)">
            <circle cx="926.354" cy="894.107" r="153.543" style="fill:none;stroke:black;stroke-width:5.56px;"/>
        </g>
        <g transform="matrix(0.75,0,0,0.75,63.4943,1372.67)">
            <circle cx="926.354" cy="894.107" r="153.543" style="fill:none;stroke:black;stroke-width:5.56px;"/>
        </g>
        <g transform="matrix(0.75,0,0,0.75,-277.844,1372.67)">
            <circle cx="926.354" cy="894.107" r="153.543" style="fill:none;stroke:black;stroke-width:5.56px;"/>
        </g>
        <g transform="matrix(0.75,0,0,0.75,-277.844,1676.81)">
            <circle cx="926.354" cy="894.107" r="153.543" style="fill:none;stroke:black;stroke-width:5.56px;"/>
        </g>
        <g transform="matrix(0.75,0,0,0.75,63.4943,1676.81)">
            <circle cx="926.354" cy="894.107" r="153.543" style="fill:none;stroke:black;stroke-width:5.56px;"/>
        </g>
        <g transform="matrix(0.75,0,0,0.75,404.242,1676.81)">
            <circle cx="926.354" cy="894.107" r="153.543" style="fill:none;stroke:black;stroke-width:5.56px;"/>
        </g>
        <g transform="matrix(0.75,0,0,0.75,744.99,1676.81)">
            <circle cx="926.354" cy="894.107" r="153.543" style="fill:none;stroke:black;stroke-width:5.56px;"/>
        </g>
        <g transform="matrix(0.75,0,0,0.75,1085.74,1676.81)">
            <circle cx="926.354" cy="894.107" r="153.543" style="fill:none;stroke:black;stroke-width:5.56px;"/>
        </g>
        <g transform="matrix(0.75,0,0,0.75,1426.49,1676.81)">
            <circle cx="926.354" cy="894.107" r="153.543" style="fill:none;stroke:black;stroke-width:5.56px;"/>
        </g>
        <g transform="matrix(0.75,0,0,0.75,1767.23,1676.81)">
            <circle cx="926.354" cy="894.107" r="153.543" style="fill:none;stroke:black;stroke-width:5.56px;"/>
        </g>
        <g transform="matrix(0.75,0,0,0.75,1767.23,1980.94)">
            <circle cx="926.354" cy="894.107" r="153.543" style="fill:none;stroke:black;stroke-width:5.56px;"/>
        </g>
        <g transform="matrix(0.75,0,0,0.75,1426.49,1980.94)">
            <circle cx="926.354" cy="894.107" r="153.543" style="fill:none;stroke:black;stroke-width:5.56px;"/>
        </g>
        <g transform="matrix(0.75,0,0,0.75,1085.74,1980.94)">
            <circle cx="926.354" cy="894.107" r="153.543" style="fill:none;stroke:black;stroke-width:5.56px;"/>
        </g>
        <g transform="matrix(0.75,0,0,0.75,744.99,1980.94)">
            <circle cx="926.354" cy="894.107" r="153.543" style="fill:none;stroke:black;stroke-width:5.56px;"/>
        </g>
        <g transform="matrix(0.75,0,0,0.75,404.242,1980.94)">
            <circle cx="926.354" cy="894.107" r="153.543" style="fill:none;stroke:black;stroke-width:5.56px;"/>
        </g>
        <g transform="matrix(0.75,0,0,0.75,63.4943,1980.94)">
            <circle cx="926.354" cy="894.107" r="153.543" style="fill:none;stroke:black;stroke-width:5.56px;"/>
        </g>
        <g transform="matrix(0.75,0,0,0.75,-277.844,1980.94)">
            <circle cx="926.354" cy="894.107" r="153.543" style="fill:none;stroke:black;stroke-width:5.56px;"/>
        </g>
    </g>
</svg>
